<svg xmlns="http://www.w3.org/2000/svg">
  <symbol id="camera">
    <path d="M23 19a2 2 0 0 1-2 2H3a2 2 0 0 1-2-2V8a2 2 0 0 1 2-2h4l2-3h6l2 3h4a2 2 0 0 1 2 2z" />
    <circle cx="12" cy="13" r="4" />
  </symbol>
  <symbol id="caret-down">
    <path d="M 16.924437,11.676179 H 6.8175139 l 5.0534661,5.053479 z" fill="currentColor" />
  </symbol>
  <symbol id="caret-up">
    <path d="M 16.92445,16.729618 H 6.8174614 l 5.0534836,-5.053534 z" fill="currentColor" />
  </symbol>
  <symbol id="check">
    <path
      d="M10.5858 13.4142L7.75735 10.5858L6.34314 12L10.5858 16.2427L17.6568 9.1716L16.2426 7.75739L10.5858 13.4142Z"
      fill="currentColor" />
  </symbol>
  <symbol id="chevron-arrow-left">
    <path
      d="M16.2426 6.34317L14.8284 4.92896L7.75739 12L14.8285 19.0711L16.2427 17.6569L10.5858 12L16.2426 6.34317Z"
      fill="currentColor" />
  </symbol>
  <symbol id="chevron-arrow-right">
    <path
      d="M10.5858 6.34317L12 4.92896L19.0711 12L12 19.0711L10.5858 17.6569L16.2427 12L10.5858 6.34317Z"
      fill="currentColor" />
  </symbol>
  <symbol id="circle">
    <circle cx="13" cy="13" r="5" />
  </symbol>
  <symbol id="current-location">
    <circle cx="12.218931" cy="11.8985" r="8" />
    <circle cx="12.218931" cy="11.8985" r="3" fill="currentColor" />
    <rect fill="currentColor" width="1.2" height="0.5" x="21" y="12" />
    <rect fill="currentColor" width="1.2" height="0.5" x="2" y="12" />
    <rect fill="currentColor" width="0.5" height="1.2" x="12" y="2" />
    <rect fill="currentColor" width="0.5" height="1.2" x="12" y="20.5" />
  </symbol>
  <symbol id="globe">
    <circle cx="12" cy="12" r="10" />
    <line x1="2" y1="12" x2="22" y2="12" />
    <path
      d="M12 2a15.3 15.3 0 0 1 4 10 15.3 15.3 0 0 1-4 10 15.3 15.3 0 0 1-4-10 15.3 15.3 0 0 1 4-10z" />
  </symbol>
  <symbol id="help">
    <circle cx="12" cy="12" r="10" />
    <path d="M9.09 9a3 3 0 0 1 5.83 1c0 2-3 3-3 3" />
    <line x1="12" y1="17" x2="12.01" y2="17" />
  </symbol>
  <symbol id="layer">
    <polygon points="12 2 2 7 12 12 22 7 12 2" />
    <polyline points="2 17 12 22 22 17" />
    <polyline points="2 12 12 17 22 12" />
  </symbol>
  <symbol id="log-in">
    <path d="M15 3h4a2 2 0 0 1 2 2v14a2 2 0 0 1-2 2h-4" />
    <polyline points="10 17 15 12 10 7" />
    <line x1="15" y1="12" x2="3" y2="12" />
  </symbol>
  <symbol id="maximize">
    <path
      d="M8 3H5a2 2 0 0 0-2 2v3m18 0V5a2 2 0 0 0-2-2h-3m0 18h3a2 2 0 0 0 2-2v-3M3 16v3a2 2 0 0 0 2 2h3" />
  </symbol>
  <symbol id="menu">
    <line x1="3" y1="12" x2="21" y2="12" />
    <line x1="3" y1="6" x2="21" y2="6" />
    <line x1="3" y1="18" x2="21" y2="18" />
  </symbol>
  <symbol id="minus">
    <line x1="5" y1="12" x2="19" y2="12" />
  </symbol>
  <symbol id="plus-circle">
    <circle cx="12" cy="12" r="10" />
    <line x1="12" y1="8" x2="12" y2="16" />
    <line x1="8" y1="12" x2="16" y2="12" />
  </symbol>
  <symbol id="plus-square">
    <rect x="3" y="3" width="18" height="18" rx="2" ry="2" />
    <line x1="12" y1="8" x2="12" y2="16" />
    <line x1="8" y1="12" x2="16" y2="12" />
  </symbol>
  <symbol id="plus">
    <line x1="12" y1="5" x2="12" y2="19" />
    <line x1="5" y1="12" x2="19" y2="12" />
  </symbol>
  <symbol id="point">
    <circle cx="12" cy="12" r="5" fill="currentColor" />
  </symbol>
  <symbol id="power-off">
    <path d="M18.36 6.64a9 9 0 1 1-12.73 0" />
    <line x1="12" y1="2" x2="12" y2="12" />
  </symbol>
  <symbol id="rotate">
    <polyline points="23 4 23 10 17 10" />
    <path d="M20.49 15a9 9 0 1 1-2.12-9.36L23 10" />
  </symbol>
  <symbol id="share">
    <circle cx="18" cy="5" r="3" />
    <circle cx="6" cy="12" r="3" />
    <circle cx="18" cy="19" r="3" />
    <line x1="8.59" y1="13.51" x2="15.42" y2="17.49" />
    <line x1="15.41" y1="6.51" x2="8.59" y2="10.49" />
  </symbol>
  <symbol id="trash">
    <polyline points="3 6 5 6 21 6" />
    <path d="M19 6v14a2 2 0 0 1-2 2H7a2 2 0 0 1-2-2V6m3 0V4a2 2 0 0 1 2-2h4a2 2 0 0 1 2 2v2" />
    <line x1="10" y1="11" x2="10" y2="17" />
    <line x1="14" y1="11" x2="14" y2="17" />
  </symbol>
  <symbol id="upload">
    <path d="M21 15v4a2 2 0 0 1-2 2H5a2 2 0 0 1-2-2v-4" />
    <polyline points="17 8 12 3 7 8" />
    <line x1="12" y1="3" x2="12" y2="15" />
  </symbol>
  <symbol id="user">
    <path d="M20 21v-2a4 4 0 0 0-4-4H8a4 4 0 0 0-4 4v2" />
    <circle cx="12" cy="7" r="4" />
  </symbol>
  <symbol id="users">
    <path d="M17 21v-2a4 4 0 0 0-4-4H5a4 4 0 0 0-4 4v2" />
    <circle cx="9" cy="7" r="4" />
    <path d="M23 21v-2a4 4 0 0 0-3-3.87" />
    <path d="M16 3.13a4 4 0 0 1 0 7.75" />
  </symbol>
  <symbol id="video">
    <polygon points="23 7 16 12 23 17 23 7" />
    <rect x="1" y="5" width="15" height="14" rx="2" ry="2" />
  </symbol>

</svg>